<?xml version="1.0" encoding="utf-8"?>
<!-- Generator: Adobe Illustrator 24.3.0, SVG Export Plug-In . SVG Version: 6.00 Build 0)  -->
<svg version="1.1" id="Layer_1" xmlns="http://www.w3.org/2000/svg" xmlns:xlink="http://www.w3.org/1999/xlink" x="0px" y="0px"
	 viewBox="0 0 200.8 52.8" style="enable-background:new 0 0 200.8 52.8;" xml:space="preserve">
<style type="text/css">
	.st0{fill:#24444D;stroke:#20444D;stroke-miterlimit:10;}
	.st1{fill:#00CC74;}
	.st2{fill:#009652;}
	.st3{fill:#12F98B;}
	.st4{fill:#016846;}
	.st5{fill:#FFFFFF;}
</style>
<rect class="st0" width="200.8" height="52.9"/>
<g id="Group_4336" transform="translate(-480.27 -131.05)">
	<circle id="Ellipse_256" class="st1" cx="511.4" cy="142.5" r="2.5"/>
	<circle id="Ellipse_257" class="st2" cx="501.4" cy="142.5" r="2.5"/>
	<circle id="Ellipse_258" class="st2" cx="521.6" cy="162.5" r="2.5"/>
	<circle id="Ellipse_259" class="st1" cx="521.6" cy="152.4" r="2.5"/>
	<circle id="Ellipse_260" class="st3" cx="521.6" cy="142.5" r="2.5"/>
	<circle id="Ellipse_261" class="st2" cx="511.4" cy="152.4" r="1.3"/>
	<circle id="Ellipse_262" class="st4" cx="501.4" cy="152.4" r="1.3"/>
	<circle id="Ellipse_263" class="st4" cx="511.4" cy="162.5" r="1.3"/>
	<circle id="Ellipse_264" class="st1" cx="531.5" cy="162.5" r="1.3"/>
	<circle id="Ellipse_265" class="st3" cx="531.5" cy="152.4" r="1.3"/>
	<circle id="Ellipse_266" class="st2" cx="491.5" cy="132.4" r="1.3"/>
	<circle id="Ellipse_267" class="st4" cx="481.6" cy="132.4" r="1.3"/>
	<circle id="Ellipse_268" class="st4" cx="491.5" cy="142.5" r="1.3"/>
	<circle id="Ellipse_269" class="st3" cx="531.5" cy="132.4" r="1.3"/>
	<circle id="Ellipse_270" class="st3" cx="521.6" cy="132.4" r="1.3"/>
	<circle id="Ellipse_271" class="st3" cx="531.5" cy="142.5" r="1.3"/>
	<circle id="Ellipse_272" class="st2" cx="531.5" cy="172.5" r="1.3"/>
	<circle id="Ellipse_273" class="st4" cx="521.6" cy="172.5" r="1.3"/>
	<circle id="Ellipse_274" class="st4" cx="531.5" cy="182.6" r="1.3"/>
	<circle id="Ellipse_275" class="st3" cx="511.4" cy="132.4" r="1.3"/>
	<circle id="Ellipse_276" class="st1" cx="501.4" cy="132.4" r="1.3"/>
	<g id="Group_4334">
		<path id="Path_8222" class="st5" d="M551.6,137.8H550v-1.5h1.7v-3.7h1.7v3.7h3.2v1.5h-3.2v6.4c0,3,1.9,3.4,2.9,3.4
			c0.2,0,0.4,0,0.6-0.1v1.6c-0.2,0-0.5,0.1-0.7,0.1c-1.5,0-4.5-0.5-4.5-4.8V137.8z"/>
		<path id="Path_8223" class="st5" d="M559.7,131.1h1.7v6.9c0,0.6-0.1,1-0.1,1h0.1c0.9-2,2.9-3.2,5.1-3.2c3.2,0,4.3,1.8,4.3,5v8.1
			h-1.7v-7.7c0-2-0.3-3.8-2.8-3.8c-2.2,0-4.1,1.5-4.7,3.6c-0.1,0.6-0.2,1.1-0.2,1.7v6.1h-1.7V131.1z"/>
		<path id="Path_8224" class="st5" d="M580.2,135.9c3.5,0,5.3,2.7,5.3,5.9c0,0.3-0.1,0.9-0.1,0.9h-9.8c-0.1,2.7,1.9,4.9,4.6,5.1
			c0.1,0,0.3,0,0.4,0c1.4,0,2.8-0.6,3.9-1.6l0.8,1.3c-1.3,1.1-3,1.8-4.7,1.8c-3.6,0.1-6.6-2.7-6.7-6.2c0-0.2,0-0.3,0-0.5
			C573.9,138.4,576.8,135.9,580.2,135.9z M583.8,141.3c-0.1-2.7-1.7-3.9-3.6-3.9c-2.3,0-4.2,1.7-4.4,3.9H583.8z"/>
	</g>
	<g id="Group_4335">
		<path id="Path_8225" class="st5" d="M551,159.2h3.4v1.6c0,0.3,0,0.6-0.1,1h0.1c0.9-1.7,2.6-2.8,4.6-2.9c1.9-0.2,3.6,1,4.1,2.9h0.1
			c0.9-1.8,2.8-2.9,4.8-2.9c2.9,0,4.6,1.6,4.6,5.3v9h-3.5v-8.4c0-1.6-0.3-2.8-1.9-2.8c-1.8,0-3,1.4-3.4,3.2
			c-0.1,0.6-0.2,1.2-0.2,1.8v6.2H560v-8.4c0-1.5-0.2-2.8-1.9-2.8c-1.8,0-3,1.4-3.4,3.2c-0.1,0.6-0.2,1.2-0.2,1.8v6.2H551V159.2z"/>
		<path id="Path_8226" class="st5" d="M583.2,164.4h0.5v-0.2c0-1.8-1.2-2.5-2.7-2.5c-1.4,0.1-2.7,0.6-3.8,1.3l-1.3-2.5
			c1.6-1.1,3.5-1.7,5.5-1.7c3.7,0,5.8,2,5.8,5.6v8.8h-3.2v-1.2c0-0.3,0-0.7,0.1-1h-0.1c-0.8,1.6-2.5,2.6-4.3,2.5
			c-2.5,0-4.8-1.6-4.8-4.4C574.9,164.7,580.9,164.4,583.2,164.4z M580.5,170.8c1.8,0,3.2-2,3.2-3.7v-0.3h-0.6
			c-1.8,0-4.7,0.2-4.7,2.2c0,1,0.9,1.9,1.9,1.8C580.4,170.8,580.5,170.8,580.5,170.8L580.5,170.8z"/>
		<path id="Path_8227" class="st5" d="M591.3,162.2h-1.8v-2.8h1.9v-4h3.4v4h3.2v2.8h-3.2v5.4c-0.1,1.4,0.9,2.6,2.3,2.6
			c0.2,0,0.3,0,0.5,0c0.2,0,0.4,0,0.6-0.1v3.1c-0.4,0.1-0.7,0.1-1.1,0.1c-2,0-5.8-0.6-5.8-5.3L591.3,162.2z"/>
		<path id="Path_8228" class="st5" d="M602.2,162.2h-1.8v-2.8h1.9v-4h3.4v4h3.2v2.8h-3.2v5.4c-0.1,1.4,0.9,2.6,2.3,2.6
			c0.2,0,0.3,0,0.5,0c0.2,0,0.4,0,0.6-0.1v3.1c-0.4,0.1-0.7,0.1-1.1,0.1c-2,0-5.8-0.6-5.8-5.3L602.2,162.2z"/>
		<path id="Path_8229" class="st5" d="M618.1,158.9c4,0,6.2,2.9,6.2,6.6c0,0.4-0.1,1.3-0.1,1.3h-9.7c0.1,2.2,2,3.8,4.2,3.7
			c1.5-0.1,2.9-0.6,4-1.5l1.3,2.5c-1.6,1.3-3.6,2-5.6,2c-4,0.2-7.3-2.9-7.5-6.8c0-0.2,0-0.3,0-0.5
			C611,161.9,613.9,158.9,618.1,158.9z M620.8,164.5c0.1-1.5-1-2.8-2.5-2.9c-0.1,0-0.2,0-0.3,0c-1.7-0.1-3.2,1.2-3.4,2.9H620.8z"/>
		<path id="Path_8230" class="st5" d="M627.2,159.2h3.4v2.4c0,0.3,0,0.7-0.1,1h0.1c0.5-2,2.3-3.5,4.5-3.6c0.2,0,0.4,0,0.6,0.1v3.4
			c-0.3,0-0.5-0.1-0.8-0.1c-1.8,0-3.4,1.2-3.8,2.9c-0.2,0.7-0.3,1.5-0.3,2.3v5.6h-3.5V159.2z"/>
		<path id="Path_8231" class="st5" d="M644.5,153.7h3.5v14.6c0,1.5,0.5,1.9,1.4,1.9c0.2,0,0.3,0,0.5,0v3.1c-0.4,0.1-0.7,0.1-1.1,0.1
			c-1.9,0-4.3-0.5-4.3-4.5L644.5,153.7z"/>
		<path id="Path_8232" class="st5" d="M659.6,164.4h0.5v-0.2c0-1.8-1.2-2.5-2.7-2.5c-1.4,0.1-2.7,0.6-3.8,1.3l-1.3-2.5
			c1.6-1.1,3.5-1.7,5.5-1.7c3.7,0,5.8,2,5.8,5.6v8.8h-3.2v-1.2c0-0.3,0-0.7,0.1-1h-0.1c-0.8,1.6-2.5,2.6-4.3,2.5
			c-2.5,0-4.8-1.6-4.8-4.4C651.3,164.7,657.3,164.4,659.6,164.4z M656.9,170.8c1.8,0,3.2-2,3.2-3.7v-0.3h-0.6
			c-1.8,0-4.7,0.2-4.7,2.2c0,1,0.9,1.9,1.9,1.8C656.8,170.8,656.8,170.8,656.9,170.8L656.9,170.8z"/>
		<path id="Path_8233" class="st5" d="M667.1,153.7h3.5v6c0,0.7-0.1,1.2-0.1,1.2h0.1c1-1.3,2.5-2.1,4.2-2c3.8,0,6.2,3,6.2,7.3
			c0,4.5-2.7,7.3-6.4,7.3c-1.7,0-3.2-0.7-4.2-2.1h-0.1c0,0.3,0.1,0.6,0.1,1v0.8h-3.3L667.1,153.7z M674,170.6c1.9,0,3.5-1.6,3.5-4.3
			c0-2.7-1.4-4.4-3.5-4.4c-1.8,0-3.5,1.3-3.5,4.4C670.5,168.5,671.7,170.6,674,170.6L674,170.6z"/>
	</g>
</g>
</svg>
